<?xml version="1.0" standalone="no"?>
<!DOCTYPE svg PUBLIC "-//W3C//DTD SVG 20010904//EN"
 "http://www.w3.org/TR/2001/REC-SVG-20010904/DTD/svg10.dtd">
<svg version="1.0" xmlns="http://www.w3.org/2000/svg"
 width="1280.000000pt" height="1125.000000pt" viewBox="0 0 1280.000000 1125.000000"
 preserveAspectRatio="xMidYMid meet">
<metadata>
Created by potrace 1.15, written by Peter Selinger 2001-2017
</metadata>
<g transform="translate(0.000000,1125.000000) scale(0.100000,-0.100000)"
fill="#f44336" stroke="none">
<path d="M6267 11234 c-153 -37 -294 -130 -377 -249 -15 -22 -1001 -1725
-2190 -3785 -1190 -2060 -2489 -4310 -2888 -5000 -399 -690 -738 -1282 -754
-1316 -62 -132 -73 -303 -29 -444 60 -190 222 -351 416 -413 l70 -22 5885 0
5885 0 70 22 c194 62 356 223 416 413 44 141 33 312 -29 444 -16 34 -355 626
-754 1316 -399 690 -1698 2940 -2888 5000 -1189 2060 -2175 3763 -2190 3785
-138 198 -413 305 -643 249z m268 -39 c139 -35 270 -124 344 -234 21 -31 601
-1030 1288 -2221 688 -1191 1990 -3445 2893 -5010 1073 -1858 1652 -2869 1668
-2915 33 -93 40 -224 18 -319 -51 -214 -226 -391 -438 -441 -55 -13 -792 -15
-5908 -15 -5116 0 -5853 2 -5908 15 -212 50 -387 227 -438 441 -22 95 -15 226
18 319 16 46 595 1057 1668 2915 903 1565 2205 3819 2893 5010 687 1191 1267
2190 1288 2221 73 108 203 198 339 233 73 19 201 20 275 1z"/>
<path d="M6270 10978 c-67 -25 -126 -68 -167 -122 -17 -23 -465 -792 -995
-1711 -531 -918 -1833 -3173 -2894 -5010 -1061 -1837 -1937 -3365 -1947 -3395
-15 -42 -18 -74 -15 -137 8 -144 86 -260 216 -321 l57 -27 5875 0 5875 0 57
27 c130 61 208 177 216 321 3 63 0 95 -15 137 -10 30 -886 1558 -1947 3395
-1061 1837 -2363 4092 -2894 5010 -530 919 -978 1688 -995 1711 -96 126 -278
178 -427 122z m252 -2081 c64 -111 1066 -1847 2227 -3857 l2111 -3655 -2230
-3 c-1227 -1 -3233 -1 -4460 0 l-2230 3 2111 3655 c1161 2010 2163 3746 2227
3857 64 112 119 203 122 203 3 0 58 -91 122 -203z"/>
<path d="M6615 6953 c-53 -7 -128 -35 -200 -72 -218 -112 -339 -378 -323 -706
l6 -104 -36 -18 c-33 -16 -46 -31 -87 -97 -9 -14 -19 -12 -95 15 -150 55 -335
51 -458 -9 -62 -30 -130 -101 -162 -169 -26 -55 -50 -160 -50 -220 l0 -42
-157 2 -158 2 -67 -33 c-112 -55 -200 -171 -227 -300 -16 -79 -13 -236 8 -314
l17 -68 -43 -21 c-54 -26 -126 -105 -141 -157 -7 -21 -12 -79 -12 -128 0 -76
4 -95 25 -133 14 -23 25 -45 25 -47 0 -2 -20 -4 -45 -4 l-45 0 0 -170 0 -170
-257 0 c-288 0 -295 -2 -330 -65 -42 -77 -58 -191 -58 -420 0 -218 8 -281 46
-357 31 -61 49 -68 176 -68 62 0 113 -2 113 -4 0 -3 -33 -67 -74 -143 l-75
-138 -250 -3 -251 -2 0 -200 0 -200 156 0 c149 0 156 -1 161 -20 3 -12 21 -53
39 -92 59 -123 185 -227 315 -262 49 -13 -6 -15 -568 -15 l-623 -1 0 -105 0
-105 3426 2 3426 3 0 100 0 100 -779 5 c-428 3 -762 8 -743 13 54 11 139 54
198 99 62 46 142 161 162 232 l13 46 328 0 329 0 0 200 0 200 -335 0 -335 0 0
564 0 563 43 56 c41 54 44 56 90 57 l47 0 0 150 0 150 -710 0 -710 0 0 -170 0
-170 -510 0 -510 0 0 28 c-1 98 -112 198 -241 217 -140 21 -300 -82 -316 -203
l-6 -42 -410 0 -410 0 7 170 7 170 -56 0 -57 0 7 28 c11 46 135 223 211 300
l71 74 40 -21 c89 -45 230 -45 330 -1 54 24 128 98 173 173 l35 59 125 1 c150
2 179 14 249 103 l22 27 37 -36 c58 -57 134 -87 218 -87 85 0 206 29 277 67
72 38 155 125 201 211 26 47 43 69 50 63 6 -4 35 -26 64 -49 65 -51 103 -62
212 -62 217 0 393 106 485 292 83 169 86 317 8 460 -31 57 -117 154 -165 188
l-34 23 0 166 c1 129 -3 180 -17 231 -52 189 -210 338 -422 396 -59 17 -347
28 -420 17z m-1556 -4619 c50 -149 188 -277 344 -319 46 -12 -10 -14 -518 -13
-365 0 -556 3 -531 9 65 15 177 81 231 134 49 49 116 162 129 218 l7 27 160
-2 160 -3 18 -51z m1287 29 c13 -57 80 -170 129 -218 58 -57 156 -113 230
-131 41 -10 -51 -12 -520 -13 -560 0 -569 0 -515 18 93 30 142 61 215 135 66
67 98 121 129 219 5 15 22 17 165 17 l161 0 6 -27z m1296 0 c6 -16 24 -57 41
-93 54 -114 182 -220 308 -254 49 -13 1 -15 -516 -15 -516 0 -565 2 -516 15
130 35 256 139 315 262 18 39 36 80 39 92 5 19 12 20 161 20 l156 0 12 -27z"/>
</g>
</svg>
